# xmcd
#
# Track frame offsets: 
#        150
#        21197
#        42695
#        60358
#        83387
#        99279
#        118223
#        131220
#        166188
#        179950
#        201540
#        215245
#        233725
#
# Disc length: 3376 seconds
#
# Revision: 1
# Processed by: cddbd v1.5.2PL0 Copyright (c) Steve Scherf et al.
# Submitted via: ExactAudioCopy v0.95b4
#
DISCID=bf0d2e0d
DTITLE=Texas Twisters - Lonesome Blues
DYEAR=2000
DGENRE=Blues
TTITLE0=Lonesome Blues
TTITLE1=Paradise Café
TTITLE2=Don't Take Advantage Of Me
TTITLE3=Ever Since I Lost You
TTITLE4=Zero House
TTITLE5=Shape I'm In
TTITLE6=The Stumble
TTITLE7=All Your Fault
TTITLE8=Whrer Were You When The Lights Went Out
TTITLE9=Wanna Be Loved
TTITLE10=Wild Night Out
TTITLE11=Crossroad Blues
TTITLE12=Shoulda Coulda Woulda
EXTD=
EXTT0=
EXTT1=
EXTT2=
EXTT3=
EXTT4=
EXTT5=
EXTT6=
EXTT7=
EXTT8=
EXTT9=
EXTT10=
EXTT11=
EXTT12=
PLAYORDER=
